<svg xmlns="http://www.w3.org/2000/svg" version="1.0" width="512.000000" height="512.000000" preserveAspectRatio="xMidYMid meet"><rect id="backgroundrect" width="100%" height="100%" x="0" y="0" fill="none" stroke="none"/>


<g class="currentLayer" style=""><title>Layer 1</title><g transform="translate(0,512) scale(0.10000000149011612,-0.10000000149011612) " fill="#d4c17f" stroke="none" id="svg_1" class="selected" fill-opacity="1">
<path d="M492 5022 c-67 -27 -112 -79 -171 -201 -48 -97 -59 -111 -85 -117 -42 -9 -129 -99 -144 -150 -16 -56 -16 -412 0 -468 16 -55 99 -138 154 -154 28 -8 126 -12 298 -12 l256 0 0 -45 c0 -41 -3 -45 -35 -61 -48 -23 -100 -85 -115 -140 -14 -50 -8 -119 14 -162 20 -38 72 -88 107 -102 l29 -12 0 -184 0 -183 -35 -17 c-48 -23 -100 -85 -115 -140 -14 -50 -8 -119 14 -162 20 -38 72 -88 107 -102 l29 -12 0 -184 0 -183 -35 -17 c-48 -23 -100 -85 -115 -140 -14 -50 -8 -119 14 -162 20 -38 72 -88 107 -102 l29 -12 0 -184 0 -183 -35 -17 c-48 -23 -100 -85 -115 -140 -14 -50 -8 -119 14 -162 20 -38 72 -88 107 -102 l29 -12 0 -356 c0 -249 4 -367 12 -396 16 -55 99 -138 154 -154 29 -8 147 -12 396 -12 412 0 420 1 491 80 55 61 67 103 67 229 l0 101 33 14 c66 27 127 125 127 202 0 79 -62 176 -130 204 l-30 12 0 184 0 184 33 14 c66 27 127 125 127 202 0 79 -62 176 -130 204 l-30 12 0 184 0 184 33 14 c66 27 127 125 127 202 0 79 -62 176 -130 204 l-30 12 0 184 0 184 33 14 c66 27 127 125 127 202 0 79 -62 176 -130 204 l-30 12 0 299 0 299 258 0 c305 0 327 5 395 80 24 26 49 66 55 88 16 54 16 411 0 466 -15 51 -102 141 -144 150 -26 6 -37 20 -85 117 -55 114 -96 166 -152 196 -30 17 -93 18 -872 20 -772 2 -843 1 -883 -15z m1689 -152 c10 -6 35 -42 54 -80 l35 -70 -910 0 -910 0 35 69 c19 39 43 74 52 80 25 14 1617 15 1644 1z m274 -335 c25 -24 25 -26 25 -215 0 -189 0 -191 -25 -215 l-24 -25 -1071 0 -1071 0 -24 25 c-25 24 -25 26 -25 215 0 189 0 191 25 215 l24 25 1071 0 1071 0 24 -25z m-695 -870 l0 -256 -400 203 -400 203 0 53 0 52 400 0 400 0 0 -255z m-379 -241 c277 -141 512 -265 522 -276 9 -11 17 -31 17 -44 0 -28 -32 -64 -58 -64 -26 0 -1034 515 -1049 536 -28 39 1 104 46 104 10 0 245 -115 522 -256z m337 -501 l42 -24 0 -145 0 -145 -400 203 -400 203 0 148 0 148 358 -182 c196 -100 376 -192 400 -206z m-337 -299 c277 -141 512 -265 522 -276 9 -11 17 -31 17 -44 0 -28 -32 -64 -58 -64 -26 0 -1034 515 -1049 536 -28 39 1 104 46 104 10 0 245 -115 522 -256z m337 -501 l42 -24 0 -145 0 -145 -400 203 -400 203 0 148 0 148 358 -182 c196 -100 376 -192 400 -206z m-337 -299 c277 -141 512 -265 522 -276 9 -11 17 -31 17 -44 0 -28 -32 -64 -58 -64 -26 0 -1034 515 -1049 536 -28 39 1 104 46 104 10 0 245 -115 522 -256z m337 -501 l42 -24 0 -145 0 -145 -400 203 -400 203 0 148 0 148 358 -182 c196 -100 376 -192 400 -206z m-337 -299 c277 -141 512 -265 522 -276 9 -11 17 -31 17 -44 0 -28 -32 -64 -58 -64 -26 0 -1034 515 -1049 536 -28 39 1 104 46 104 10 0 245 -115 522 -256z m337 -501 l42 -24 0 -105 c0 -98 -2 -107 -25 -129 l-24 -25 -351 0 -351 0 -24 25 -25 24 0 311 0 311 358 -182 c196 -100 376 -192 400 -206z" id="svg_2" fill="#d4c17f"/>
<path d="M2838 2470 c-23 -14 -678 -1162 -678 -1189 0 -25 644 -1158 672 -1184 19 -16 70 -17 765 -17 474 0 751 4 763 10 24 13 680 1160 680 1189 0 25 -644 1158 -672 1184 -19 16 -70 17 -767 17 -470 0 -752 -4 -763 -10z m1734 -670 l297 -520 -297 -520 -297 -519 -675 0 -675 -1 -297 520 -297 520 297 520 297 520 675 0 675 0 297 -520z" id="svg_3" fill="#d4c17f"/>
<path d="M3460 1986 c-216 -46 -404 -189 -499 -378 -61 -123 -76 -190 -75 -338 1 -107 5 -137 27 -205 38 -115 90 -198 182 -290 131 -131 277 -199 454 -212 434 -30 796 330 767 765 -6 107 -43 228 -97 320 -49 82 -180 211 -262 257 -148 82 -343 113 -497 81z m246 -157 c96 -17 213 -79 286 -152 112 -112 163 -235 163 -397 0 -160 -51 -285 -161 -394 -109 -110 -234 -161 -394 -161 -162 0 -285 51 -397 163 -236 236 -209 632 58 834 131 100 284 136 445 107z" id="svg_4" fill="#d4c17f"/>
</g></g></svg>