<svg xmlns="http://www.w3.org/2000/svg" version="1.0" width="512.000000" height="512.000000" preserveAspectRatio="xMidYMid meet" style=""><rect id="backgroundrect" width="100%" height="100%" x="0" y="0" fill="none" stroke="none"/>


<g class="currentLayer" style=""><title>Layer 1</title><g transform="translate(0,512) scale(0.10000000149011612,-0.10000000149011612) " fill="#d4c17f" stroke="#dd0000" id="svg_1" class="selected" stroke-opacity="1" fill-opacity="1">
<path d="M1237 5109 c-45 -26 -47 -52 -47 -546 0 -426 2 -471 18 -503 20 -41 59 -58 100 -44 15 5 34 24 44 44 16 32 18 77 18 503 0 498 -2 521 -48 546 -26 14 -62 14 -85 0z" id="svg_2" stroke="#dd0000" fill="#d4c17f"/>
<path d="M2225 5111 c-102 -27 -187 -97 -231 -194 l-29 -62 -3 -247 -4 -248 -101 0 c-56 0 -119 -5 -139 -10 -59 -17 -120 -69 -150 -129 -26 -50 -28 -64 -28 -170 0 -135 15 -177 85 -239 55 -48 93 -59 226 -68 l107 -7 4 -241 c3 -221 5 -245 25 -288 l22 -48 -327 0 c-197 0 -342 -4 -365 -11 -53 -14 -105 -70 -113 -119 l-7 -40 -516 0 c-324 0 -530 -4 -553 -10 -86 -24 -136 -107 -124 -202 10 -76 59 -214 99 -283 69 -117 183 -209 326 -264 133 -51 377 -91 560 -91 42 0 106 -3 142 -6 l67 -7 6 -38 c8 -48 61 -104 113 -118 22 -7 154 -11 319 -11 l281 0 31 -102 c55 -180 67 -259 67 -428 0 -112 -5 -179 -18 -240 -23 -104 -84 -294 -135 -415 l-38 -90 -102 -3 -102 -3 0 188 c-1 197 -3 208 -47 231 -35 19 -63 14 -94 -17 l-29 -29 0 -186 0 -186 -69 0 c-54 0 -75 -5 -101 -22 -78 -54 -90 -94 -90 -318 0 -233 13 -273 100 -317 l44 -23 1823 0 c1985 0 1859 -4 1915 56 44 47 48 73 48 288 0 189 -1 204 -22 246 -31 59 -75 84 -163 90 l-70 5 -5 192 c-6 213 -7 219 -71 229 -29 5 -41 1 -65 -19 l-29 -25 -3 -191 -3 -191 -98 0 -99 0 -41 100 c-176 424 -198 714 -83 1085 l28 90 299 5 c254 4 305 8 330 22 39 21 71 56 84 91 15 39 15 935 0 974 -15 40 -48 73 -94 94 -38 18 -85 19 -887 19 l-846 0 14 28 c26 52 34 133 34 329 l0 194 98 -6 c53 -3 404 -12 780 -21 734 -18 727 -18 801 32 43 29 87 93 102 147 6 24 9 111 7 216 -4 201 -12 229 -90 295 -79 68 -51 67 -880 46 -409 -11 -760 -20 -780 -20 l-36 0 -4 228 c-3 226 -3 227 -32 289 -33 73 -103 143 -173 176 -47 21 -58 22 -458 24 -225 1 -423 -2 -440 -6z m822 -176 c50 -21 72 -42 94 -90 17 -38 19 -84 19 -785 0 -458 -4 -758 -10 -779 -11 -39 -51 -86 -92 -107 -41 -21 -786 -21 -827 1 -39 20 -78 69 -91 113 -6 24 -10 296 -10 772 1 776 1 781 47 832 10 11 36 29 58 39 36 17 72 19 408 19 309 0 374 -2 404 -15z m1880 -699 c22 -26 23 -34 23 -182 l0 -156 -29 -29 c-26 -25 -37 -29 -85 -29 l-56 0 0 89 c0 49 -4 101 -10 116 -13 34 -69 59 -104 46 -45 -18 -56 -47 -56 -148 l0 -93 -85 0 -85 0 0 85 c0 100 -15 138 -60 153 -35 13 -56 8 -87 -21 -21 -19 -23 -30 -23 -115 l0 -95 -367 7 c-203 3 -414 9 -470 13 l-103 6 0 173 0 174 93 1 c50 0 380 9 732 19 352 10 664 17 694 16 45 -2 58 -8 78 -30z m-2967 -186 l0 -140 -37 1 c-21 0 -69 3 -107 8 -94 10 -106 25 -106 138 0 76 2 86 25 108 22 23 31 25 125 25 l100 0 0 -140z m2990 -1490 l0 -430 -1790 0 -1790 0 0 430 0 430 1790 0 1790 0 0 -430z m-3760 3 l0 -258 -172 7 c-554 21 -757 125 -832 427 -8 35 -13 68 -10 72 3 5 232 9 510 9 l504 0 0 -257z m3000 -701 c-44 -155 -62 -283 -63 -432 0 -207 42 -403 137 -645 20 -49 36 -93 36 -97 0 -5 -515 -8 -1145 -8 -630 0 -1145 2 -1145 4 0 2 13 36 30 75 16 40 46 122 65 183 112 344 111 616 -1 996 l-6 22 1059 0 1060 0 -27 -98z m760 -1522 l0 -170 -1790 0 -1790 0 0 170 0 170 1790 0 1790 0 0 -170z" id="svg_3" stroke="#dd0000" fill="#d4c17f"/>
<path d="M1600 2813 c-60 -22 -81 -100 -37 -141 21 -20 34 -22 141 -22 64 0 125 4 135 10 10 5 24 23 31 40 17 42 -2 88 -46 106 -33 14 -192 19 -224 7z" id="svg_4" stroke="#dd0000" fill="#d4c17f"/>
<path d="M2104 2810 c-53 -21 -69 -88 -33 -134 l20 -26 1109 0 1109 0 20 26 c28 35 26 77 -3 111 l-24 28 -1089 2 c-601 1 -1098 -2 -1109 -7z" id="svg_5" stroke="#dd0000" fill="#d4c17f"/>
<path d="M112 5007 c-15 -15 -22 -36 -22 -61 0 -33 9 -47 91 -131 108 -112 143 -132 192 -111 23 9 38 24 46 46 16 48 -5 84 -114 189 -86 83 -98 91 -133 91 -27 0 -45 -7 -60 -23z" id="svg_6" stroke="#dd0000" fill="#d4c17f"/>
<path d="M560 4597 c-32 -16 -54 -61 -45 -95 4 -17 78 -98 194 -214 176 -177 190 -188 225 -188 50 0 86 36 86 86 0 34 -12 49 -177 216 -209 211 -227 223 -283 195z" id="svg_7" stroke="#dd0000" fill="#d4c17f"/>
<path d="M50 3913 c-66 -34 -66 -112 0 -146 29 -15 54 -18 139 -15 99 3 104 5 127 31 31 36 31 78 0 114 -23 26 -28 28 -127 31 -85 3 -110 0 -139 -15z" id="svg_8" stroke="#dd0000" fill="#d4c17f"/>
<path d="M564 3916 c-42 -19 -61 -65 -43 -107 21 -53 52 -59 291 -59 183 0 218 3 248 18 66 33 66 111 0 144 -30 16 -65 18 -250 18 -157 -1 -223 -4 -246 -14z" id="svg_9" stroke="#dd0000" fill="#d4c17f"/>
</g></g></svg>