<svg xmlns="http://www.w3.org/2000/svg" version="1.0" width="512.000000" height="512.000000" preserveAspectRatio="xMidYMid meet"><rect id="backgroundrect" width="100%" height="100%" x="0" y="0" fill="none" stroke="none"/>


<g class="currentLayer" style=""><title>Layer 1</title><g transform="translate(0,512) scale(0.10000000149011612,-0.10000000149011612) " fill="#d4c17f" stroke="none" id="svg_1" class="selected" fill-opacity="1">
<path d="M2265 5109 c-31 -17 -2234 -2221 -2251 -2251 -18 -35 -21 -556 -2 -591 24 -46 25 -46 384 -47 188 0 365 -5 394 -10 158 -30 276 -144 309 -298 6 -29 11 -79 11 -110 l0 -57 -541 -540 c-297 -297 -547 -552 -555 -567 -11 -22 -14 -82 -14 -303 l0 -277 29 -29 29 -29 1389 0 c1070 1 1393 3 1409 13 11 7 391 401 844 877 452 476 957 1000 1121 1165 l299 301 0 283 c0 183 -4 289 -11 303 -24 45 -55 49 -452 48 -401 -1 -408 -1 -502 55 -84 48 -164 164 -178 256 l-5 36 560 559 c307 307 566 571 574 586 11 22 14 82 14 303 l0 277 -29 29 -29 29 -1389 0 c-978 -1 -1394 -4 -1408 -11z m1535 -1184 l-1025 -1025 -1240 0 -1240 0 1025 1025 1025 1025 1240 0 1240 0 -1025 -1025z m133 -387 c-560 -560 -1021 -1018 -1025 -1018 -5 0 -8 57 -8 127 l0 128 1023 1023 1022 1022 3 -132 3 -132 -1018 -1018z m22 -549 c62 -65 133 -111 216 -141 60 -22 81 -23 357 -26 160 -2 292 -6 292 -9 0 -4 -120 -128 -268 -277 -147 -149 -607 -628 -1021 -1063 l-754 -793 -301 0 c-166 0 -328 4 -360 10 -118 19 -233 105 -285 212 -38 79 -43 153 -39 595 3 401 4 420 25 471 41 102 123 183 225 225 51 21 71 22 433 25 l380 3 485 484 484 484 41 -75 c22 -40 63 -97 90 -125z m-1225 -429 l0 -170 -298 0 c-168 0 -324 -5 -358 -11 -32 -6 -96 -28 -141 -50 -148 -71 -251 -199 -293 -365 -18 -71 -20 -111 -20 -508 0 -483 4 -521 65 -642 63 -125 187 -231 324 -276 61 -20 89 -22 394 -26 l327 -3 0 -170 0 -169 -1280 0 -1280 0 0 170 0 170 298 0 c336 0 392 7 509 65 139 69 256 219 288 372 22 101 21 921 0 1012 -36 151 -146 292 -282 364 -115 60 -166 67 -510 67 l-303 0 0 170 0 170 1280 0 1280 0 0 -170z m1922 -435 c-228 -229 -1034 -1070 -1734 -1810 -18 -20 -19 -18 -16 116 l3 136 765 804 c420 442 879 920 1020 1062 l255 258 3 -133 3 -132 -299 -301z m-3552 -1130 c-33 -160 -157 -279 -316 -305 -69 -11 -484 -14 -484 -3 0 5 181 189 403 411 l402 402 3 -227 c1 -131 -2 -249 -8 -278z" id="svg_2" fill="#d4c17f"/>
<path d="M3695 2785 c-32 -31 -32 -75 -1 -111 62 -73 179 5 134 89 -28 53 -92 64 -133 22z" id="svg_3" fill="#d4c17f"/>
<path d="M3450 2527 c-8 -7 -39 -38 -67 -69 -57 -62 -66 -95 -37 -136 42 -60 101 -46 182 42 43 48 52 64 52 95 0 49 -33 81 -81 81 -19 0 -41 -6 -49 -13z" id="svg_4" fill="#d4c17f"/>
<path d="M3123 2175 c-15 -7 -52 -38 -81 -69 -42 -46 -52 -64 -52 -92 0 -46 37 -84 82 -84 38 0 58 15 122 88 52 59 58 94 26 134 -24 31 -59 39 -97 23z" id="svg_5" fill="#d4c17f"/>
<path d="M2785 1821 c-11 -5 -46 -36 -77 -69 -49 -51 -58 -66 -58 -97 0 -47 36 -85 82 -85 27 0 44 12 100 69 54 55 68 76 68 100 0 56 -66 103 -115 82z" id="svg_6" fill="#d4c17f"/>
<path d="M2375 1404 c-35 -37 -65 -77 -68 -89 -12 -64 54 -119 113 -95 37 15 128 113 136 146 9 33 -12 79 -42 93 -51 23 -73 14 -139 -55z" id="svg_7" fill="#d4c17f"/>
<path d="M2075 1085 c-43 -42 -26 -114 31 -136 35 -13 91 12 105 48 32 85 -72 153 -136 88z" id="svg_8" fill="#d4c17f"/>
</g></g></svg>