<svg xmlns="http://www.w3.org/2000/svg" version="1.0" width="512.000000" height="512.000000" preserveAspectRatio="xMidYMid meet" style=""><rect id="backgroundrect" width="100%" height="100%" x="0" y="0" fill="none" stroke="none"/>


<g class="currentLayer" style=""><title>Layer 1</title><g transform="translate(0,512) scale(0.10000000149011612,-0.10000000149011612) " fill="#d4c17f" stroke="none" id="svg_1" class="selected" fill-opacity="1">
<path d="M0 2560 l0 -2560 330 0 330 0 0 1365 0 1365 -115 0 c-85 0 -115 3 -115 13 0 39 55 387 61 387 4 0 144 -59 311 -130 166 -72 305 -130 308 -130 3 0 37 63 75 140 63 128 68 141 54 157 -466 544 -499 584 -499 608 l0 25 290 0 290 0 0 80 0 80 153 0 c138 0 156 -2 202 -24 28 -13 64 -38 79 -57 62 -73 61 -64 64 -545 l3 -441 -41 -7 c-82 -13 -151 -65 -186 -141 l-24 -50 0 -1036 c0 -1125 -2 -1078 55 -1153 14 -18 49 -46 77 -62 52 -28 57 -29 198 -29 142 0 146 1 198 30 33 18 66 46 84 73 30 44 30 44 52 24 72 -65 478 -413 511 -438 47 -37 90 -60 154 -82 41 -15 149 -17 1049 -19 l1002 -4 0 720 c0 782 1 773 -57 937 -57 161 -178 333 -298 425 -92 71 -101 80 -88 85 45 19 206 131 263 182 249 226 387 598 341 923 -14 98 -62 262 -98 334 -141 281 -398 491 -701 572 -86 24 -117 27 -271 28 -143 1 -176 4 -179 15 -13 42 -65 99 -114 125 l-53 30 -235 0 c-220 0 -239 -2 -291 -23 -121 -48 -205 -130 -252 -244 -22 -53 -22 -55 -25 -933 -2 -631 0 -897 8 -940 24 -123 110 -235 220 -287 27 -13 49 -27 50 -31 0 -5 -11 -23 -24 -40 -31 -40 -99 -176 -120 -242 -41 -119 -47 -178 -53 -453 -3 -150 -9 -272 -13 -270 -3 2 -169 143 -368 313 l-362 310 0 571 c0 620 0 618 -56 691 -32 42 -97 80 -151 89 l-42 6 -3 462 -3 461 -32 67 c-60 126 -170 213 -302 238 -29 5 -114 10 -187 10 l-134 0 0 80 0 80 -95 0 c-52 0 -95 3 -95 6 0 3 27 37 60 76 33 38 60 73 60 79 0 8 -127 268 -135 277 -2 2 -140 -55 -307 -127 -167 -72 -308 -131 -314 -131 -6 0 -25 118 -48 308 -21 169 -40 315 -43 325 -4 15 -22 17 -204 17 l-199 0 0 -2560z m260 2379 c0 -14 68 -559 76 -611 l6 -38 80 0 c79 0 81 1 336 110 141 61 262 110 269 110 7 0 17 -8 22 -19 9 -16 -26 -60 -229 -297 l-239 -279 -1 -116 0 -116 239 -279 c244 -284 245 -286 216 -322 -1 -1 -118 47 -259 108 l-258 110 -89 0 c-49 0 -89 -2 -89 -3 0 -2 -18 -129 -40 -282 -22 -153 -40 -280 -40 -282 0 -1 -20 -3 -45 -3 l-45 0 0 1110 0 1110 45 0 c27 0 45 -5 45 -11z m3427 -753 l28 -24 3 -999 c2 -710 0 -1009 -8 -1036 -18 -62 -49 -70 -270 -65 -174 3 -188 5 -241 30 -32 14 -67 40 -82 60 -50 65 -57 96 -57 258 l0 150 138 0 c157 0 194 8 254 53 63 47 98 122 98 209 l0 68 -80 0 -80 0 0 -39 c0 -50 -18 -99 -40 -111 -10 -6 -80 -10 -154 -10 l-136 0 0 410 0 410 134 0 c128 0 136 -1 163 -24 l28 -24 3 -221 3 -221 80 0 79 0 0 223 c0 254 -7 290 -67 352 -63 65 -107 78 -275 83 l-148 4 0 152 c0 128 3 157 20 191 23 49 35 64 80 97 57 42 85 46 297 47 200 1 202 1 230 -23z m-2529 -138 l-3 -83 -153 -3 c-99 -2 -153 1 -150 7 1 6 32 44 66 86 l64 75 89 0 90 0 -3 -82z m3082 -25 c256 -50 498 -240 623 -488 53 -105 78 -211 84 -352 10 -224 -39 -395 -162 -568 -46 -65 -197 -215 -217 -215 -26 0 -156 87 -211 141 -60 60 -120 169 -132 240 -7 35 -6 36 49 63 106 52 186 178 186 295 0 132 -94 263 -222 308 l-47 17 -43 126 -43 125 -112 3 -113 3 0 154 0 154 43 5 c23 3 56 8 72 10 46 5 161 -4 245 -21z m-210 -598 l42 -125 52 0 c62 0 107 -25 144 -80 20 -29 23 -44 20 -93 -7 -97 -61 -146 -173 -155 l-65 -5 0 -82 c0 -103 28 -213 76 -306 43 -82 143 -193 214 -239 27 -18 48 -36 45 -41 -8 -13 -129 -47 -215 -60 -72 -11 -259 -7 -280 6 -6 4 -10 247 -10 656 l0 649 54 0 54 0 42 -125z m-1995 -725 c21 -20 25 -32 25 -82 l0 -58 -165 0 -165 0 0 40 c0 22 6 56 14 75 19 44 54 55 173 52 82 -3 95 -6 118 -27z m-1535 -1335 l0 -1195 -165 0 -165 0 0 1195 0 1195 165 0 165 0 0 -1195z m1560 651 l0 -373 -87 4 c-73 4 -98 2 -148 -16 -33 -12 -68 -24 -77 -28 -17 -5 -18 18 -18 391 l0 396 165 0 165 0 0 -374z m2268 45 c214 -111 361 -291 433 -531 23 -74 23 -85 27 -717 l3 -643 -683 0 -683 0 567 568 c654 654 623 615 623 787 0 87 -3 107 -26 155 -36 77 -106 145 -187 183 -59 27 -77 31 -152 31 -72 0 -95 -5 -150 -29 -60 -26 -99 -62 -512 -474 l-448 -445 0 224 c0 124 5 254 11 289 21 134 80 263 171 379 l50 62 151 0 c101 1 165 5 190 14 57 21 105 63 135 117 26 48 28 50 62 43 49 -8 257 -5 305 5 22 5 44 9 48 10 4 0 33 -12 65 -28z m8 -347 c71 -34 124 -114 124 -189 0 -79 -30 -118 -262 -352 -122 -123 -227 -223 -233 -223 -5 0 -75 65 -155 145 l-145 145 230 230 c133 131 246 236 265 244 46 20 134 20 176 0z m-2287 -249 c14 -7 270 -223 569 -479 299 -256 546 -466 548 -466 5 0 53 54 86 96 l20 25 -53 49 -54 49 192 193 193 193 145 -145 c80 -80 145 -150 145 -155 0 -6 -132 -142 -292 -302 -349 -346 -352 -348 -503 -348 -93 0 -104 2 -152 30 -29 17 -293 238 -586 493 -576 499 -569 492 -569 590 1 126 102 210 236 196 27 -3 61 -11 75 -19z m-146 -635 c148 -128 156 -137 157 -172 0 -28 -6 -41 -26 -57 -23 -18 -41 -21 -135 -21 -100 0 -110 2 -136 24 l-28 24 -3 172 c-2 104 0 171 6 169 5 -2 79 -65 165 -139z" id="svg_2" fill="#d4c17f"/>
<path d="M3220 3965 l0 -85 85 0 86 0 -3 83 -3 82 -82 3 -83 3 0 -86z" id="svg_3" fill="#d4c17f"/>
</g></g></svg>